<svg xmlns="http://www.w3.org/2000/svg" width="906" height="196" viewBox="0 0 906 196">
<g>
<path d="M 46.50,184.52 L 45.54,184.34 L 43.25,183.82 L 42.07,183.53 L 39.57,182.85 L 38.32,182.50 L 35.92,181.75 L 32.74,180.65 L 31.76,180.28 L 29.61,179.32 L 28.51,178.82 L 26.21,177.65 L 23.90,176.45 L 19.45,173.80 L 18.39,173.15 L 16.51,171.89 L 15.61,171.27 L 14.14,170.16 L 13.48,169.62 L 12.57,168.74 L 12.00,167.77 L 12.00,167.72 L 12.30,167.33 L 12.50,167.09 L 13.17,166.33 L 13.55,165.90 L 14.57,164.80 L 15.13,164.20 L 16.47,162.78 L 17.19,162.03 L 18.83,160.31 L 19.69,159.42 L 21.61,157.43 L 22.60,156.41 L 24.77,154.18 L 25.89,153.04 L 28.28,150.59 L 30.73,148.09 L 36.18,142.55 L 38.98,139.71 L 45.00,133.63 L 48.06,130.53 L 54.45,124.11 L 57.67,120.87 L 64.22,114.31 L 67.49,111.03 L 74.00,104.52 L 77.23,101.30 L 83.50,95.06 L 86.59,91.99 L 92.42,86.22 L 95.25,83.41 L 100.44,78.31 L 101.69,77.09 L 104.02,74.80 L 105.16,73.68 L 107.27,71.63 L 108.29,70.63 L 110.14,68.84 L 111.04,67.98 L 112.61,66.48 L 113.35,65.77 L 114.62,64.58 L 115.21,64.02 L 116.15,63.17 L 116.57,62.79 L 117.15,62.30 L 117.58,62.00 L 117.78,62.00 L 118.23,62.20 L 118.47,62.33 L 119.01,62.77 L 119.57,63.27 L 120.89,64.91 L 121.58,65.82 L 123.07,68.13 L 123.83,69.36 L 125.40,72.17 L 126.18,73.61 L 127.72,76.73 L 128.48,78.31 L 129.90,81.55 L 130.58,83.17 L 131.77,86.35 L 133.20,90.86 L 133.55,92.14 L 134.12,95.02 L 134.38,96.50 L 134.79,99.69 L 135.16,102.93 L 135.39,109.83 L 135.43,113.28 L 134.99,119.90 L 134.84,121.50 L 134.41,124.47 L 133.57,128.50 L 132.93,130.95 L 131.34,135.68 L 130.50,138.01 L 128.51,142.47 L 127.47,144.67 L 125.11,148.87 L 123.89,150.93 L 121.19,154.84 L 119.80,156.75 L 116.78,160.35 L 115.23,162.12 L 111.91,165.40 L 110.22,167.00 L 106.63,169.94 L 104.81,171.37 L 100.98,173.97 L 99.03,175.22 L 94.97,177.44 L 92.92,178.51 L 88.67,180.35 L 86.52,181.23 L 82.10,182.67 L 79.86,183.34 L 75.29,184.37 L 72.99,184.83 L 68.29,185.43 L 65.93,185.67 L 61.14,185.82 L 58.73,185.84 L 53.86,185.53 L 51.42,185.31 M 201.00,142.63 L 199.47,142.19 L 196.80,141.22 L 195.53,140.71 L 193.31,139.58 L 192.24,138.99 L 190.35,137.65 L 187.80,135.34 L 187.19,134.70 L 185.86,132.81 L 185.21,131.81 L 183.98,129.60 L 183.41,128.51 L 182.56,126.48 L 182.39,126.01 L 182.15,125.19 L 182.00,124.21 L 182.00,124.09 L 182.42,123.75 L 182.70,123.57 L 183.57,123.14 L 184.53,122.70 L 187.24,121.73 L 188.64,121.27 L 191.47,120.52 L 192.14,120.36 L 193.32,120.14 L 194.73,120.00 L 195.38,120.00 L 196.39,120.60 L 197.35,122.28 L 197.58,123.16 L 198.69,124.95 L 199.35,125.84 L 201.15,127.51 L 202.12,128.30 L 204.38,129.65 L 208.04,131.09 L 209.20,131.40 L 211.46,131.72 L 212.57,131.83 L 214.68,131.77 L 215.72,131.70 L 217.64,131.29 L 218.56,131.05 L 220.23,130.32 L 221.02,129.92 L 222.37,128.91 L 223.01,128.37 L 223.99,127.09 L 224.43,126.42 L 224.99,124.91 L 225.29,122.41 L 225.27,121.71 L 225.09,120.48 L 224.96,119.89 L 224.51,118.82 L 224.25,118.30 L 223.47,117.34 L 223.03,116.86 L 221.84,115.96 L 221.19,115.51 L 219.52,114.62 L 218.62,114.17 L 216.41,113.24 L 215.23,112.77 L 212.40,111.75 L 207.38,110.08 L 205.03,109.32 L 200.99,107.87 L 199.07,107.15 L 195.81,105.73 L 194.28,105.01 L 191.74,103.53 L 190.55,102.78 L 188.66,101.19 L 187.79,100.37 L 186.46,98.59 L 185.86,97.67 L 185.02,95.63 L 184.66,94.57 L 184.24,92.20 L 184.00,88.21 L 184.00,86.73 L 184.30,84.01 L 184.50,82.68 L 185.20,80.26 L 185.60,79.08 L 186.71,76.96 L 187.32,75.93 L 188.84,74.10 L 189.65,73.22 L 191.58,71.68 L 192.60,70.94 L 194.95,69.69 L 196.17,69.10 L 198.94,68.13 L 203.58,66.99 L 205.53,66.62 L 209.31,66.25 L 211.18,66.12 L 214.76,66.23 L 216.52,66.34 L 219.86,66.91 L 221.49,67.26 L 224.55,68.27 L 226.04,68.84 L 228.77,70.28 L 230.09,71.06 L 232.46,72.92 L 233.59,73.91 L 235.56,76.17 L 238.00,80.00 L 238.34,80.66 L 238.88,81.77 L 239.13,82.29 L 239.48,83.15 L 239.63,83.56 L 239.78,84.21 L 239.82,84.52 L 239.76,85.01 L 239.64,85.47 L 238.73,86.08 L 236.25,86.88 L 235.08,87.18 L 233.14,87.66 L 232.23,87.88 L 230.76,88.20 L 230.08,88.34 L 229.00,88.50 L 228.50,88.55 L 227.72,88.53 L 227.36,88.50 L 226.80,88.29 L 226.54,88.16 L 226.12,87.76 L 225.00,85.81 L 224.47,84.69 L 223.07,82.81 L 222.32,81.94 L 220.47,80.55 L 219.49,79.92 L 217.18,79.03 L 213.22,78.25 L 212.12,78.14 L 210.04,78.19 L 209.03,78.25 L 207.16,78.61 L 206.25,78.83 L 204.63,79.47 L 203.85,79.83 L 202.52,80.72 L 201.89,81.19 L 200.90,82.30 L 200.44,82.88 L 199.83,84.16 L 199.57,84.83 L 199.37,86.27 L 199.60,88.55 L 199.81,89.39 L 200.96,90.91 L 201.31,91.29 L 202.21,92.01 L 202.69,92.37 L 203.87,93.06 L 204.49,93.41 L 205.96,94.08 L 206.73,94.42 L 208.50,95.08 L 209.42,95.41 L 211.50,96.07 L 215.00,97.06 L 216.41,97.44 L 218.93,98.15 L 220.14,98.50 L 222.31,99.18 L 223.36,99.52 L 225.23,100.19 L 226.13,100.53 L 227.76,101.22 L 229.33,101.91 L 231.95,103.45 L 235.50,106.14 L 236.66,107.15 L 238.48,109.25 L 239.30,110.31 L 240.49,112.60 L 241.01,113.78 L 241.64,116.39 L 242.00,120.82 L 242.00,122.02 L 241.79,124.30 L 241.65,125.41 L 241.17,127.52 L 240.90,128.56 L 240.14,130.49 L 239.73,131.44 L 238.71,133.20 L 238.16,134.06 L 236.87,135.64 L 236.19,136.41 L 234.64,137.81 L 233.83,138.48 L 232.01,139.69 L 229.00,141.29 L 228.29,141.61 L 226.45,142.16 L 225.47,142.42 L 223.19,142.85 L 222.00,143.05 L 219.43,143.35 L 218.12,143.49 L 215.40,143.65 L 212.68,143.79 L 207.42,143.61 L 206.17,143.53 L 203.90,143.24 L 202.82,143.08 M 276.78,142.52 L 275.35,142.13 L 272.55,141.05 L 271.16,140.47 L 268.49,139.05 L 267.18,138.30 L 264.69,136.59 L 263.46,135.69 L 261.19,133.72 L 260.09,132.71 L 258.09,130.52 L 257.12,129.41 L 255.44,127.06 L 254.64,125.86 L 253.33,123.39 L 251.82,119.58 L 251.03,117.03 L 250.13,111.89 L 249.78,109.33 L 249.73,104.26 L 249.80,101.74 L 250.55,96.86 L 251.02,94.46 L 252.53,89.89 L 253.37,87.65 L 255.59,83.52 L 256.79,81.52 L 259.67,77.94 L 261.19,76.23 L 264.69,73.33 L 270.59,69.87 L 272.46,69.04 L 276.40,67.81 L 278.39,67.26 L 282.50,66.60 L 284.57,66.33 L 288.75,66.22 L 290.84,66.23 L 294.98,66.65 L 297.04,66.93 L 301.03,67.87 L 302.99,68.41 L 306.73,69.86 L 308.55,70.65 L 311.92,72.60 L 316.44,76.05 L 317.69,77.20 L 319.97,79.81 L 321.07,81.16 L 323.00,84.07 L 323.92,85.55 L 325.41,88.62 L 327.07,93.26 L 327.27,94.01 L 327.58,95.79 L 327.73,96.71 L 327.93,98.78 L 328.09,100.91 L 328.10,105.61 L 328.04,107.96 L 327.61,112.53 L 327.48,113.62 L 327.13,115.65 L 326.50,118.35 L 326.09,119.75 L 324.71,122.85 L 323.95,124.42 L 322.05,127.58 L 321.05,129.13 L 318.89,131.93 L 315.63,135.28 L 314.50,136.23 L 311.88,137.92 L 310.52,138.73 L 307.53,140.11 L 306.00,140.77 L 302.72,141.84 L 301.06,142.33 L 297.60,143.07 L 295.85,143.40 L 292.30,143.78 L 290.52,143.93 L 286.97,143.94 L 285.20,143.90 L 281.75,143.53 L 280.04,143.30 M 301.23,126.45 L 302.61,125.49 L 305.13,122.84 L 308.32,117.99 L 308.95,116.75 L 309.82,114.79 L 310.20,113.84 L 310.63,112.01 L 310.80,111.04 L 310.90,108.70 L 310.92,108.05 L 310.89,106.55 L 310.82,103.92 L 310.76,102.51 L 310.53,99.94 L 310.38,98.69 L 309.95,96.43 L 309.71,95.33 L 309.06,93.35 L 308.71,92.39 L 307.84,90.65 L 307.37,89.81 L 306.25,88.28 L 305.66,87.55 L 304.28,86.21 L 303.55,85.56 L 301.89,84.38 L 299.07,82.75 L 297.27,81.84 L 293.90,80.70 L 292.24,80.24 L 289.00,80.02 L 287.38,80.02 L 284.10,80.70 L 278.93,82.75 L 277.93,83.26 L 276.14,84.37 L 275.28,84.94 L 273.77,86.18 L 273.05,86.83 L 271.80,88.25 L 271.21,88.98 L 270.20,90.59 L 269.73,91.43 L 268.96,93.26 L 268.61,94.21 L 268.06,96.30 L 267.81,97.37 L 267.46,99.73 L 267.15,103.61 L 267.11,104.50 L 267.07,106.06 L 267.05,106.80 L 267.05,108.10 L 267.07,109.36 L 267.30,111.38 L 267.45,112.35 L 268.00,114.19 L 269.28,117.30 L 269.92,118.70 L 271.59,121.27 L 272.48,122.50 L 274.55,124.66 L 275.62,125.68 L 277.97,127.31 L 281.68,129.03 L 282.07,129.16 L 283.27,129.36 L 283.92,129.46 L 285.50,129.59 L 290.73,129.67 L 291.98,129.62 L 294.00,129.41 L 294.95,129.29 L 296.57,128.87 L 297.35,128.63 L 298.84,127.93 L 299.60,127.53 M 357.22,142.53 L 355.60,142.02 L 352.69,140.62 L 351.30,139.85 L 348.85,137.92 L 347.68,136.89 L 345.67,134.42 L 343.14,130.11 L 340.52,124.50 L 340.50,96.67 L 340.49,94.17 L 340.51,89.71 L 340.52,87.58 L 340.55,83.82 L 340.57,82.03 L 340.63,78.94 L 340.67,77.48 L 340.75,75.03 L 340.80,73.87 L 340.91,72.01 L 340.97,71.16 L 341.11,69.86 L 341.18,69.27 L 341.35,68.50 L 341.65,67.88 L 341.81,67.75 L 342.68,67.53 L 343.19,67.42 L 344.63,67.28 L 345.40,67.22 L 347.21,67.17 L 350.16,67.20 L 357.50,67.50 L 358.00,94.00 L 358.03,95.85 L 358.10,99.23 L 358.14,100.86 L 358.21,103.84 L 358.25,105.28 L 358.34,107.89 L 358.38,109.15 L 358.48,111.42 L 358.53,112.51 L 358.66,114.46 L 358.73,115.40 L 358.88,117.07 L 359.04,118.67 L 359.48,121.13 L 359.72,122.26 L 360.35,123.95 L 360.70,124.72 L 361.58,125.87 L 362.05,126.40 L 363.22,127.23 L 365.36,128.37 L 366.48,128.90 L 368.83,129.57 L 370.02,129.84 L 372.43,130.01 L 373.64,130.03 L 376.02,129.74 L 377.20,129.54 L 379.46,128.82 L 380.57,128.40 L 382.62,127.29 L 383.60,126.68 L 385.34,125.20 L 386.16,124.42 L 387.50,122.62 L 388.96,119.59 L 389.03,119.37 L 389.17,118.48 L 389.25,117.97 L 389.39,116.52 L 389.46,115.74 L 389.59,113.81 L 389.66,112.80 L 389.79,110.46 L 389.85,109.25 L 389.97,106.59 L 390.03,105.22 L 390.13,102.29 L 390.35,92.87 L 390.41,89.62 L 390.56,83.61 L 390.60,82.17 L 390.68,79.49 L 390.73,78.19 L 390.83,75.85 L 390.87,74.73 L 390.97,72.79 L 391.03,71.88 L 391.13,70.42 L 391.18,69.75 L 391.28,68.83 L 391.43,68.12 L 391.53,67.96 L 392.23,67.69 L 392.66,67.56 L 393.88,67.36 L 394.55,67.27 L 396.12,67.14 L 396.93,67.08 L 398.66,67.03 L 400.41,67.00 L 403.66,67.18 L 404.39,67.24 L 405.58,67.44 L 406.76,67.83 L 406.89,67.91 L 407.10,68.45 L 407.20,68.79 L 407.36,69.93 L 407.44,70.59 L 407.57,72.43 L 407.62,73.45 L 407.71,76.10 L 407.75,77.54 L 407.80,81.10 L 407.82,83.00 L 407.83,87.57 L 407.83,88.78 L 407.83,91.41 L 407.83,92.76 L 407.82,95.68 L 407.81,97.17 L 407.80,100.39 L 407.76,105.57 L 407.50,142.50 L 399.50,142.50 L 391.50,142.50 L 391.19,138.75 L 391.10,137.72 L 390.82,136.10 L 390.75,135.76 L 390.60,135.30 L 390.38,135.00 L 390.31,135.00 L 389.89,135.24 L 389.63,135.40 L 388.91,135.90 L 386.08,138.06 L 385.21,138.75 L 383.24,139.98 L 382.22,140.56 L 380.00,141.53 L 378.86,141.99 L 376.44,142.72 L 375.21,143.05 L 372.66,143.52 L 371.38,143.72 L 368.76,143.91 L 367.45,143.97 L 364.82,143.89 L 363.51,143.81 L 360.95,143.43 L 359.67,143.21 M 530.48,142.26 L 528.65,141.60 L 525.26,139.89 L 523.62,138.97 L 520.63,136.77 L 519.18,135.60 L 516.61,132.93 L 515.37,131.54 L 513.24,128.45 L 512.23,126.85 L 510.56,123.37 L 509.79,121.59 L 508.61,117.76 L 508.08,115.80 L 507.41,111.66 L 507.01,105.14 L 507.01,103.62 L 507.19,100.71 L 507.30,99.27 L 507.70,96.53 L 507.93,95.18 L 508.55,92.60 L 508.90,91.32 L 509.76,88.90 L 510.22,87.70 L 511.31,85.42 L 511.89,84.30 L 513.23,82.15 L 513.92,81.10 L 515.50,79.09 L 518.14,76.20 L 519.67,74.69 L 523.05,72.18 L 524.78,71.00 L 528.48,69.16 L 530.36,68.32 L 534.24,67.16 L 536.20,66.67 L 540.15,66.21 L 542.13,66.07 L 546.02,66.31 L 547.94,66.52 L 551.65,67.47 L 553.46,68.04 L 556.85,69.71 L 561.44,73.05 L 562.03,73.59 L 563.15,74.58 L 563.70,75.06 L 564.65,75.84 L 565.10,76.20 L 565.78,76.69 L 566.36,77.00 L 566.41,77.00 L 566.49,76.50 L 566.53,76.17 L 566.61,75.07 L 566.65,74.44 L 566.72,72.80 L 566.75,71.92 L 566.81,69.80 L 566.84,68.69 L 566.89,66.17 L 566.91,64.87 L 566.95,62.01 L 567.00,52.50 L 567.00,28.00 L 575.50,28.00 L 584.00,28.00 L 584.00,85.50 L 584.00,143.00 L 576.00,143.00 L 568.00,143.00 L 567.98,139.25 L 567.98,138.51 L 567.92,137.26 L 567.88,136.68 L 567.74,135.75 L 567.66,135.32 L 567.43,134.70 L 567.30,134.42 L 566.97,134.10 L 566.80,133.98 L 566.36,133.95 L 566.13,133.98 L 565.58,134.24 L 565.28,134.41 L 564.61,134.96 L 563.44,136.09 L 562.18,137.41 L 559.61,139.46 L 558.29,140.39 L 555.38,141.74 L 553.86,142.33 L 550.33,143.10 L 549.39,143.26 L 547.35,143.48 L 544.00,143.70 L 542.41,143.77 L 539.74,143.78 L 538.47,143.76 L 536.27,143.58 L 535.21,143.47 L 533.28,143.08 L 532.33,142.87 M 552.50,128.88 L 553.16,128.70 L 554.58,128.06 L 555.30,127.70 L 556.78,126.76 L 558.26,125.76 L 561.13,123.13 L 562.50,121.76 L 564.76,118.78 L 565.26,118.04 L 566.06,116.58 L 566.88,114.50 L 567.03,113.95 L 567.31,112.46 L 567.44,111.67 L 567.67,109.87 L 567.99,104.36 L 568.00,102.37 L 567.32,98.50 L 566.87,96.60 L 565.36,93.06 L 564.50,91.35 L 562.25,88.31 L 558.12,84.52 L 557.15,83.84 L 555.59,82.90 L 554.82,82.48 L 553.27,81.99 L 552.45,81.78 L 550.37,81.59 L 549.80,81.55 L 548.46,81.52 L 546.09,81.50 L 545.25,81.50 L 543.79,81.52 L 543.10,81.53 L 541.90,81.59 L 540.75,81.66 L 538.98,81.97 L 538.14,82.16 L 536.65,82.80 L 534.23,84.23 L 533.67,84.60 L 532.41,85.66 L 531.78,86.23 L 530.50,87.56 L 529.87,88.24 L 528.72,89.66 L 527.31,91.73 L 526.68,92.78 L 525.82,94.53 L 525.44,95.38 L 524.97,97.13 L 524.78,98.05 L 524.59,100.35 L 524.56,100.98 L 524.53,102.44 L 524.51,105.00 L 524.51,106.69 L 524.61,109.36 L 524.68,110.60 L 524.95,112.59 L 525.12,113.53 L 525.61,115.15 L 526.67,117.50 L 527.42,118.89 L 529.16,121.35 L 530.06,122.51 L 532.10,124.49 L 533.14,125.42 L 535.44,126.89 L 539.13,128.50 L 540.49,128.93 L 542.81,129.48 L 543.92,129.70 L 545.96,129.86 L 546.97,129.89 L 549.04,129.65 L 550.10,129.49 M 616.68,142.50 L 615.59,142.20 L 613.49,141.41 L 612.45,140.99 L 610.47,139.98 L 608.53,138.92 L 605.15,136.22 L 604.36,135.51 L 602.93,133.98 L 602.24,133.20 L 601.05,131.54 L 600.49,130.70 L 599.57,128.94 L 598.52,126.23 L 598.38,125.75 L 598.31,125.01 L 598.32,124.67 L 598.62,124.11 L 598.82,123.84 L 599.58,123.34 L 601.33,122.51 L 602.28,122.11 L 604.92,121.30 L 608.68,120.43 L 609.60,120.29 L 610.87,120.17 L 611.43,120.15 L 612.21,120.39 L 612.56,120.57 L 613.12,121.31 L 614.03,123.14 L 614.36,123.89 L 615.22,125.25 L 615.68,125.91 L 616.77,127.06 L 617.90,128.17 L 620.65,129.77 L 622.09,130.48 L 625.23,131.30 L 626.82,131.62 L 630.02,131.66 L 631.60,131.59 L 634.56,130.88 L 635.98,130.43 L 638.38,128.97 L 638.93,128.56 L 639.88,127.61 L 640.32,127.10 L 641.02,125.97 L 641.33,125.37 L 641.74,124.05 L 642.00,121.88 L 642.00,121.37 L 641.76,120.37 L 641.59,119.88 L 641.01,118.92 L 640.68,118.44 L 639.76,117.51 L 639.26,117.04 L 637.98,116.12 L 637.30,115.66 L 635.66,114.76 L 634.80,114.31 L 632.79,113.40 L 631.74,112.95 L 629.35,112.05 L 625.33,110.69 L 622.30,109.73 L 616.35,107.62 L 614.99,107.11 L 612.69,106.20 L 612.16,105.99 L 611.27,105.61 L 610.22,105.11 L 608.78,104.38 L 606.31,102.51 L 605.14,101.52 L 603.28,99.21 L 602.42,98.01 L 601.22,95.34 L 600.23,91.01 L 600.04,89.10 L 600.06,85.87 L 600.14,84.34 L 600.74,81.67 L 601.12,80.38 L 602.39,78.01 L 605.14,74.47 L 606.49,73.00 L 609.41,70.75 L 610.18,70.23 L 611.80,69.37 L 612.64,68.96 L 614.44,68.28 L 615.36,67.97 L 617.38,67.47 L 618.41,67.25 L 620.67,66.92 L 621.84,66.78 L 624.38,66.60 L 628.57,66.50 L 629.59,66.50 L 631.33,66.52 L 632.16,66.53 L 633.59,66.59 L 634.97,66.66 L 637.13,67.00 L 638.16,67.21 L 640.13,67.91 L 643.57,69.52 L 644.66,70.08 L 646.50,71.19 L 647.38,71.75 L 648.90,72.96 L 649.62,73.58 L 650.92,74.97 L 652.75,77.39 L 653.29,78.19 L 654.16,79.59 L 654.57,80.26 L 655.16,81.42 L 655.43,81.97 L 655.74,82.90 L 655.86,83.35 L 655.90,84.10 L 655.88,84.45 L 655.63,85.04 L 655.47,85.32 L 654.93,85.79 L 654.63,86.01 L 653.81,86.38 L 652.25,86.86 L 651.10,87.15 L 649.22,87.62 L 648.35,87.83 L 646.95,88.14 L 646.31,88.27 L 645.29,88.41 L 644.82,88.46 L 644.09,88.41 L 643.41,88.31 L 642.47,87.50 L 642.24,87.24 L 641.75,86.54 L 640.90,85.23 L 640.05,83.90 L 638.09,81.83 L 637.07,80.89 L 634.74,79.58 L 633.52,79.02 L 630.77,78.44 L 626.13,78.38 L 624.46,78.53 L 621.74,79.26 L 620.47,79.68 L 618.57,80.94 L 617.72,81.63 L 616.65,83.40 L 616.00,86.64 L 616.00,87.36 L 616.49,88.99 L 616.80,89.81 L 617.72,91.37 L 618.21,92.11 L 619.33,93.24 L 620.94,94.03 L 621.13,94.04 L 621.71,94.14 L 622.03,94.20 L 622.84,94.39 L 623.71,94.60 L 626.00,95.26 L 627.22,95.62 L 630.00,96.50 L 631.43,96.96 L 634.44,97.97 L 635.95,98.48 L 638.90,99.53 L 640.35,100.05 L 642.98,101.04 L 644.23,101.52 L 646.26,102.36 L 648.34,103.35 L 649.95,104.30 L 652.60,106.74 L 653.83,108.03 L 655.70,111.01 L 656.53,112.55 L 657.61,115.88 L 658.05,117.57 L 658.34,121.06 L 658.39,122.81 L 657.88,126.26 L 657.53,127.97 L 656.22,131.19 L 655.46,132.75 L 653.34,135.55 L 652.76,136.21 L 651.45,137.42 L 649.26,139.05 L 648.30,139.66 L 646.09,140.72 L 644.95,141.22 L 642.43,142.06 L 641.14,142.45 L 638.39,143.05 L 636.99,143.33 L 634.09,143.70 L 631.16,144.01 L 625.19,143.88 L 623.71,143.78 L 620.82,143.39 L 619.40,143.16 M 771.50,143.49 L 771.36,143.45 L 770.66,143.23 L 770.26,143.11 L 769.13,142.78 L 764.84,141.57 L 763.99,141.33 L 762.15,140.63 L 761.22,140.25 L 759.31,139.31 L 754.01,135.92 L 752.83,134.98 L 750.70,132.99 L 749.68,131.97 L 747.85,129.80 L 746.97,128.70 L 745.44,126.34 L 744.71,125.14 L 743.47,122.61 L 742.89,121.31 L 741.95,118.59 L 741.51,117.20 L 740.86,114.27 L 740.58,112.79 L 740.22,109.66 L 740.00,104.75 L 740.00,102.18 L 740.56,97.35 L 740.94,94.99 L 742.22,90.60 L 742.95,88.47 L 744.93,84.55 L 746.00,82.66 L 748.63,79.26 L 750.03,77.63 L 753.29,74.79 L 754.99,73.44 L 758.85,71.18 L 760.84,70.13 L 765.26,68.50 L 772.47,66.81 L 774.08,66.56 L 777.22,66.31 L 778.77,66.22 L 781.81,66.30 L 783.31,66.37 L 786.23,66.77 L 787.67,67.00 L 790.45,67.71 L 791.83,68.11 L 794.47,69.13 L 795.77,69.68 L 798.25,71.02 L 799.47,71.72 L 801.78,73.36 L 805.04,76.16 L 805.60,76.69 L 806.73,78.01 L 807.30,78.71 L 808.41,80.25 L 809.51,81.83 L 811.40,85.17 L 811.83,85.99 L 812.53,87.51 L 812.85,88.25 L 813.29,89.55 L 813.48,90.16 L 813.60,91.11 L 813.36,92.01 L 813.24,92.13 L 812.47,92.39 L 812.01,92.53 L 810.67,92.81 L 809.95,92.95 L 808.24,93.21 L 805.42,93.54 L 798.34,94.23 L 797.04,91.11 L 796.71,90.29 L 795.85,88.78 L 795.40,88.05 L 794.33,86.73 L 793.22,85.45 L 790.48,83.45 L 789.04,82.55 L 785.82,81.30 L 784.17,80.77 L 780.68,80.30 L 778.93,80.16 L 775.39,80.48 L 773.64,80.73 L 770.28,81.85 L 768.64,82.52 L 765.66,84.46 L 764.96,85.00 L 763.65,86.23 L 761.88,88.32 L 760.85,89.75 L 759.28,92.92 L 758.58,94.55 L 757.66,98.03 L 757.28,99.78 L 756.98,103.40 L 756.91,105.21 L 757.22,108.82 L 757.45,110.61 L 758.35,114.06 L 758.87,115.75 L 760.34,118.89 L 761.14,120.41 L 763.15,123.08 L 766.77,126.41 L 767.99,127.26 L 770.92,128.53 L 772.45,129.08 L 775.75,129.71 L 777.42,129.94 L 780.77,129.90 L 785.47,129.01 L 786.65,128.62 L 789.03,127.34 L 790.20,126.63 L 792.39,124.88 L 793.44,123.96 L 795.19,121.96 L 797.03,118.92 L 798.31,115.83 L 805.41,116.52 L 806.38,116.61 L 808.23,116.85 L 809.12,116.97 L 810.67,117.24 L 811.39,117.37 L 812.47,117.64 L 813.36,118.01 L 813.54,118.18 L 813.61,118.90 L 813.59,119.31 L 813.31,120.42 L 813.13,121.01 L 812.56,122.41 L 812.24,123.13 L 811.43,124.71 L 810.58,126.32 L 808.42,129.61 L 804.96,133.83 L 803.66,135.12 L 801.17,137.20 L 799.91,138.17 L 797.33,139.71 L 796.01,140.43 L 793.12,141.55 L 788.20,142.88 L 786.96,143.14 L 783.82,143.53 L 782.19,143.70 L 778.84,143.87 L 777.20,143.93 L 774.36,143.88 L 773.72,143.85 L 772.66,143.74 L 772.18,143.67 M 848.00,142.57 L 845.84,141.97 L 841.89,140.36 L 839.97,139.50 L 836.50,137.38 L 834.83,136.26 L 831.88,133.64 L 830.47,132.28 L 828.04,129.20 L 826.89,127.60 L 825.01,124.07 L 824.14,122.26 L 822.81,118.31 L 822.22,116.29 L 821.47,111.94 L 821.02,105.00 L 821.02,103.04 L 821.36,99.26 L 821.58,97.40 L 822.35,93.83 L 822.78,92.08 L 823.97,88.76 L 824.61,87.13 L 826.19,84.08 L 827.03,82.59 L 829.00,79.84 L 830.03,78.50 L 832.37,76.08 L 833.58,74.91 L 836.27,72.84 L 840.68,70.17 L 842.31,69.33 L 845.85,68.06 L 847.65,67.49 L 851.43,66.75 L 853.34,66.44 L 857.24,66.20 L 859.20,66.15 L 863.12,66.41 L 865.07,66.61 L 868.89,67.36 L 870.77,67.80 L 874.37,69.03 L 876.13,69.70 L 879.39,71.39 L 883.77,74.45 L 884.61,75.15 L 886.17,76.82 L 886.93,77.70 L 888.34,79.66 L 889.02,80.68 L 890.25,82.90 L 890.84,84.04 L 891.87,86.48 L 892.36,87.72 L 893.19,90.31 L 893.57,91.63 L 894.16,94.35 L 894.42,95.72 L 894.77,98.52 L 894.98,102.75 L 895.00,108.00 L 866.37,108.00 L 837.74,108.00 L 838.40,112.09 L 838.61,113.40 L 839.27,115.82 L 839.64,117.00 L 840.60,119.16 L 841.12,120.21 L 842.38,122.09 L 843.05,123.00 L 844.58,124.59 L 845.39,125.35 L 847.18,126.64 L 848.11,127.24 L 850.15,128.20 L 851.20,128.64 L 853.47,129.27 L 857.12,129.81 L 859.16,129.96 L 862.70,129.73 L 867.51,128.55 L 868.53,128.16 L 870.61,126.95 L 871.63,126.30 L 873.52,124.73 L 874.42,123.93 L 875.86,122.24 L 877.22,119.83 L 877.30,119.59 L 877.76,119.28 L 878.05,119.15 L 879.04,119.07 L 879.63,119.07 L 881.34,119.22 L 884.90,119.71 L 885.90,119.87 L 887.77,120.20 L 888.67,120.36 L 890.20,120.68 L 890.91,120.83 L 891.95,121.10 L 892.74,121.41 L 892.91,121.57 L 892.96,122.19 L 892.95,122.54 L 892.68,123.46 L 892.50,123.95 L 891.95,125.11 L 891.65,125.70 L 890.87,127.02 L 890.04,128.35 L 887.88,131.18 L 884.26,135.04 L 883.17,136.04 L 880.71,137.81 L 879.44,138.66 L 876.69,140.10 L 875.28,140.78 L 872.30,141.88 L 870.78,142.39 L 867.63,143.14 L 866.03,143.48 L 862.77,143.86 L 861.13,144.01 L 857.82,144.02 L 856.16,143.97 L 852.86,143.59 L 851.22,143.35 M 877.41,94.14 L 877.49,94.02 L 877.42,93.41 L 877.35,93.05 L 877.04,92.04 L 876.86,91.50 L 876.35,90.24 L 875.41,88.20 L 874.63,86.62 L 872.65,84.09 L 871.60,82.93 L 869.05,81.23 L 867.69,80.47 L 864.50,79.55 L 858.93,79.02 L 857.76,79.03 L 855.47,79.29 L 854.34,79.46 L 852.18,80.03 L 851.12,80.35 L 849.14,81.20 L 848.17,81.66 L 846.38,82.77 L 845.52,83.36 L 843.98,84.70 L 843.25,85.40 L 841.99,86.95 L 841.40,87.75 L 840.47,89.48 L 839.47,92.25 L 838.78,95.00 L 857.83,95.00 L 860.45,95.00 L 865.27,94.93 L 866.42,94.91 L 868.56,94.85 L 869.59,94.82 L 871.44,94.75 L 872.33,94.71 L 873.85,94.62 L 874.57,94.57 L 875.70,94.47 L 876.22,94.42 L 876.92,94.31 L 877.21,94.26 M 427.47,141.79 L 427.44,141.70 L 427.38,140.78 L 427.35,140.21 L 427.30,138.40 L 427.28,137.40 L 427.24,134.81 L 427.22,133.42 L 427.20,130.15 L 427.19,128.44 L 427.18,124.59 L 427.17,122.60 L 427.17,118.27 L 427.18,116.05 L 427.19,111.35 L 427.24,104.00 L 427.50,67.50 L 433.97,67.20 L 435.16,67.14 L 437.17,67.08 L 438.13,67.06 L 439.71,67.09 L 440.45,67.12 L 441.64,67.26 L 442.19,67.35 L 443.05,67.61 L 443.44,67.77 L 444.02,68.18 L 444.27,68.41 L 444.61,68.99 L 445.00,71.45 L 445.00,74.86 L 449.99,71.50 L 451.37,70.58 L 454.34,69.10 L 455.86,68.41 L 459.05,67.42 L 460.66,66.98 L 463.97,66.46 L 465.63,66.26 L 468.96,66.23 L 470.62,66.27 L 473.88,66.71 L 475.49,66.99 L 478.58,67.91 L 480.09,68.43 L 482.92,69.82 L 486.75,72.44 L 487.16,72.79 L 488.09,73.83 L 488.57,74.40 L 489.56,75.76 L 492.12,80.23 L 492.70,81.52 L 493.47,83.75 L 493.64,84.37 L 493.89,85.81 L 494.01,86.60 L 494.18,88.57 L 494.25,89.64 L 494.34,92.39 L 494.36,93.14 L 494.39,94.82 L 494.41,95.69 L 494.43,97.65 L 494.43,98.67 L 494.44,100.94 L 494.44,102.12 L 494.45,104.73 L 494.45,106.09 L 494.44,109.07 L 494.43,114.00 L 494.36,142.50 L 485.93,142.50 L 477.50,142.50 L 477.00,115.82 L 476.97,114.26 L 476.92,111.40 L 476.89,110.02 L 476.83,107.49 L 476.81,106.27 L 476.76,104.05 L 476.73,102.98 L 476.67,101.04 L 476.62,99.18 L 476.49,96.21 L 476.43,94.83 L 476.27,92.69 L 476.18,91.71 L 475.97,90.23 L 475.86,89.55 L 475.58,88.53 L 474.43,86.32 L 473.62,85.22 L 471.65,83.49 L 470.62,82.69 L 468.30,81.55 L 467.11,81.05 L 464.57,80.50 L 463.28,80.29 L 460.67,80.32 L 459.36,80.40 L 456.81,80.99 L 455.55,81.36 L 453.20,82.51 L 452.05,83.16 L 450.04,84.86 L 447.54,88.04 L 447.07,88.83 L 446.42,90.62 L 446.27,91.14 L 446.04,92.44 L 445.92,93.15 L 445.74,94.96 L 445.66,95.94 L 445.51,98.42 L 445.44,99.76 L 445.33,103.08 L 445.30,103.97 L 445.24,105.94 L 445.22,106.95 L 445.16,109.19 L 445.14,110.34 L 445.08,112.87 L 445.00,117.00 L 444.50,142.50 L 436.23,142.79 L 434.72,142.84 L 432.36,142.86 L 431.28,142.85 L 429.72,142.72 L 429.02,142.64 L 428.14,142.37 L 427.78,142.22 M 672.00,85.50 L 672.00,28.00 L 680.50,28.00 L 689.00,28.00 L 689.00,85.50 L 689.00,143.00 L 680.50,143.00 L 672.00,143.00 L 672.00,85.50 M 709.46,141.75 L 709.42,141.66 L 709.36,140.75 L 709.34,140.18 L 709.29,138.38 L 709.27,137.38 L 709.23,134.79 L 709.22,133.41 L 709.19,130.14 L 709.18,128.43 L 709.17,124.58 L 709.17,122.59 L 709.17,118.27 L 709.18,116.05 L 709.19,111.35 L 709.24,104.00 L 709.50,67.50 L 717.50,67.50 L 725.50,67.50 L 725.76,105.25 L 726.02,143.00 L 717.98,143.00 L 716.60,143.00 L 714.36,142.93 L 713.33,142.87 L 711.77,142.70 L 711.07,142.59 L 710.15,142.31 L 709.77,142.15 M 21.52,129.03 L 20.43,127.39 L 18.48,124.11 L 17.54,122.46 L 15.87,119.14 L 15.07,117.47 L 13.69,114.08 L 13.03,112.38 L 11.92,108.91 L 11.39,107.17 L 10.55,103.60 L 10.16,101.80 L 9.58,98.12 L 9.33,96.26 L 9.00,92.43 L 8.80,86.50 L 8.79,83.39 L 9.19,77.76 L 9.46,75.01 L 10.50,69.78 L 11.11,67.17 L 12.89,61.91 L 13.39,60.57 L 14.54,57.81 L 16.52,53.50 L 17.71,51.02 L 20.49,46.31 L 21.93,44.00 L 25.18,39.65 L 26.86,37.52 L 30.55,33.56 L 32.44,31.64 L 36.53,28.10 L 38.62,26.39 L 43.07,23.31 L 45.34,21.82 L 50.12,19.22 L 52.54,17.99 L 57.61,15.90 L 65.50,13.38 L 66.74,13.05 L 69.37,12.55 L 70.72,12.32 L 73.67,11.99 L 75.20,11.84 L 78.64,11.67 L 84.50,11.59 L 86.10,11.59 L 89.05,11.67 L 90.49,11.72 L 93.18,11.91 L 95.82,12.12 L 100.58,12.90 L 102.92,13.36 L 107.46,14.71 L 114.61,17.51 L 115.46,17.88 L 117.34,18.82 L 118.31,19.32 L 120.34,20.44 L 122.38,21.59 L 126.34,24.08 L 127.28,24.69 L 128.97,25.86 L 129.77,26.42 L 131.08,27.43 L 131.68,27.91 L 132.49,28.68 L 133.00,29.47 L 133.00,29.51 L 132.70,29.88 L 132.50,30.11 L 131.82,30.85 L 131.43,31.27 L 130.40,32.37 L 129.84,32.95 L 128.48,34.37 L 127.76,35.12 L 126.10,36.84 L 125.23,37.73 L 123.29,39.72 L 122.29,40.75 L 120.10,42.98 L 118.98,44.13 L 116.56,46.59 L 114.10,49.10 L 108.59,54.68 L 105.76,57.54 L 99.69,63.67 L 96.60,66.79 L 90.17,73.27 L 86.92,76.53 L 80.32,83.16 L 77.02,86.47 L 70.46,93.03 L 67.21,96.29 L 60.89,102.59 L 57.79,105.69 L 51.93,111.52 L 49.07,114.36 L 43.87,119.51 L 42.62,120.75 L 40.27,123.06 L 39.13,124.19 L 37.02,126.26 L 35.99,127.27 L 34.14,129.08 L 33.25,129.95 L 31.69,131.47 L 30.94,132.19 L 29.69,133.39 L 29.10,133.95 L 28.18,134.82 L 27.77,135.20 L 27.21,135.70 L 26.80,136.00 L 26.72,136.00 L 26.19,135.45 L 25.87,135.10 L 24.98,133.95 L 24.50,133.32 L 23.37,131.73 L 22.78,130.90 M 713.05,51.73 L 712.72,51.56 L 711.95,50.99 L 711.56,50.67 L 710.76,49.88 L 708.67,47.17 L 708.25,46.45 L 707.69,45.30 L 707.46,44.75 L 707.27,43.74 L 707.22,43.22 L 707.36,42.07 L 707.92,39.88 L 708.22,38.87 L 709.13,37.14 L 709.62,36.32 L 710.85,34.98 L 711.50,34.37 L 712.98,33.45 L 713.74,33.04 L 715.38,32.56 L 716.21,32.37 L 717.92,32.34 L 718.79,32.38 L 720.50,32.82 L 721.35,33.09 L 722.98,34.02 L 725.25,35.98 L 726.20,37.04 L 727.33,39.29 L 727.77,40.43 L 727.99,42.73 L 727.99,43.87 L 727.42,46.03 L 727.05,47.08 L 725.82,48.95 L 725.14,49.83 L 723.39,51.24 L 722.46,51.86 L 720.32,52.63 L 719.21,52.92 L 716.81,52.88 L 715.59,52.74 Z" fill="rgba(254,254,254,1)"/>
</g>
</svg>